[h264 @ 0x55e189568080] Reinit context to 848x480, pix_fmt: yuv420p
Input #0, mov,mp4,m4a,3gp,3g2,mj2, from '/var/www/html/project/media/video/original/27daeb75-7e8a-4e4c-97bf-24156d5da375.mp4':
  Metadata:
    major_brand     : mp42
    minor_version   : 0
    compatible_brands: mp42isom
  Duration: 00:00:54.40, start: 0.000000, bitrate: 1511 kb/s
    Stream #0:0(und): Video: h264 (High), 1 reference frame (avc1 / 0x31637661), yuv420p(tv, bt709, left), 848x480, 1439 kb/s, 100 fps, 100 tbr, 600 tbn, 1200 tbc (default)
    Stream #0:1(und): Audio: aac (LC) (mp4a / 0x6134706D), 44100 Hz, stereo, fltp, 61 kb/s (default)
Input #1, png_pipe, from '/var/www/html/project/static/images/templates/logo.png':
  Duration: N/A, bitrate: N/A
    Stream #1:0: Video: png, 1 reference frame, rgba(pc), 1920x1080 [SAR 2835:2835 DAR 16:9], 25 tbr, 25 tbn, 25 tbc
[h264 @ 0x55e189733bc0] Reinit context to 1280x720, pix_fmt: yuv420p
Input #2, mov,mp4,m4a,3gp,3g2,mj2, from '/var/www/html/project/static/images/templates/Codino.mp4':
  Metadata:
    major_brand     : mp42
    minor_version   : 1
    compatible_brands: isommp41mp42
    creation_time   : 2021-07-11T07:02:58.000000Z
  Duration: 00:00:02.00, start: 0.000000, bitrate: 1007 kb/s
    Stream #2:0(ita): Audio: aac (LC) (mp4a / 0x6134706D), 44100 Hz, stereo, fltp, 102 kb/s (default)
    Metadata:
      creation_time   : 2021-07-11T07:02:58.000000Z
      handler_name    : Core Media Audio
    Stream #2:1(und): Video: h264 (High), 1 reference frame (avc1 / 0x31637661), yuv420p(tv, bt709, progressive, left), 1280x720 [SAR 1:1 DAR 16:9], 813 kb/s, 25 fps, 25 tbr, 25k tbn, 50k tbc (default)
    Metadata:
      creation_time   : 2021-07-11T07:02:58.000000Z
      handler_name    : Core Media Video
[Parsed_scale_0 @ 0x55e189733580] w:1280 h:720 flags:'bilinear' interl:0
[Parsed_scale_2 @ 0x55e1897a0980] w:1280 h:720 flags:'bilinear' interl:0
[Parsed_scale_4 @ 0x55e18979dc00] w:1280 h:720 flags:'bilinear' interl:0
Stream mapping:
  Stream #0:0 (h264) -> scale
  Stream #0:1 (aac) -> concat:in0:a0
  Stream #1:0 (png) -> scale
  Stream #2:0 (aac) -> concat:in1:a0
  Stream #2:1 (h264) -> scale
  concat:out:v0 -> Stream #0:0 (libx264)
  concat:out:a0 -> Stream #0:1 (aac)
Press [q] to stop, [?] for help
[h264 @ 0x55e1895d5800] Reinit context to 848x480, pix_fmt: yuv420p
[h264 @ 0x55e189a60880] Reinit context to 1280x720, pix_fmt: yuv420p
[Parsed_scale_0 @ 0x55e18981c780] w:1280 h:720 flags:'bilinear' interl:0
[Parsed_scale_2 @ 0x55e1896c3980] w:1280 h:720 flags:'bilinear' interl:0
[Parsed_scale_4 @ 0x55e18a5412c0] w:1280 h:720 flags:'bilinear' interl:0
[graph 0 input from stream 0:0 @ 0x55e1896c1dc0] w:848 h:480 pixfmt:yuv420p tb:1/600 fr:100/1 sar:0/1 sws_param:flags=2
[graph 0 input from stream 1:0 @ 0x55e1896c2000] w:1920 h:1080 pixfmt:rgba tb:1/25 fr:25/1 sar:2835/2835 sws_param:flags=2
[graph 0 input from stream 2:1 @ 0x55e1896c2240] w:1280 h:720 pixfmt:yuv420p tb:1/25000 fr:25/1 sar:1/1 sws_param:flags=2
[graph_0_in_0_1 @ 0x55e1896c2480] tb:1/44100 samplefmt:fltp samplerate:44100 chlayout:0x3
[graph_0_in_2_0 @ 0x55e1896c4cc0] tb:1/44100 samplefmt:fltp samplerate:44100 chlayout:0x3
[Parsed_scale_0 @ 0x55e18981c780] w:848 h:480 fmt:yuv420p sar:0/1 -> w:1280 h:720 fmt:yuv420p sar:0/1 flags:0x2
[Parsed_setsar_1 @ 0x55e18a53c3c0] w:1280 h:720 sar:0/1 dar:16/9 -> sar:1/1 dar:16/9
[Parsed_scale_2 @ 0x55e1896c3980] w:1920 h:1080 fmt:rgba sar:2835/2835 -> w:1280 h:720 fmt:yuva420p sar:1/1 flags:0x2
[Parsed_setsar_3 @ 0x55e18a53e580] w:1280 h:720 sar:1/1 dar:16/9 -> sar:1/1 dar:16/9
[Parsed_overlay_6 @ 0x55e18a5471c0] main w:1280 h:720 fmt:yuv420p overlay w:1280 h:720 fmt:yuva420p
[Parsed_overlay_6 @ 0x55e18a5471c0] [framesync @ 0x55e1896bf3a8] Selected 1/600 time base
[Parsed_overlay_6 @ 0x55e18a5471c0] [framesync @ 0x55e1896bf3a8] Sync level 2
[Parsed_scale_4 @ 0x55e18a5412c0] w:1280 h:720 fmt:yuv420p sar:1/1 -> w:1280 h:720 fmt:yuv420p sar:1/1 flags:0x2
[Parsed_setsar_5 @ 0x55e18a546540] w:1280 h:720 sar:1/1 dar:16/9 -> sar:1/1 dar:16/9
[libx264 @ 0x55e1895e4d00] using SAR=1/1
[libx264 @ 0x55e1895e4d00] using cpu capabilities: MMX2 SSE2Fast SSSE3 SSE4.2 AVX FMA3 BMI2 AVX2
[libx264 @ 0x55e1895e4d00] profile High, level 4.2
[libx264 @ 0x55e1895e4d00] 264 - core 155 r2917 0a84d98 - H.264/MPEG-4 AVC codec - Copyleft 2003-2018 - http://www.videolan.org/x264.html - options: cabac=1 ref=1 deblock=1:0:0 analyse=0x3:0x113 me=hex subme=2 psy=1 psy_rd=1.00:0.00 mixed_ref=0 me_range=16 chroma_me=1 trellis=0 8x8dct=1 cqm=0 deadzone=21,11 fast_pskip=1 chroma_qp_offset=0 threads=22 lookahead_threads=5 sliced_threads=0 nr=0 decimate=1 interlaced=0 bluray_compat=0 constrained_intra=0 bframes=3 b_pyramid=2 b_adapt=1 b_bias=0 direct=1 weightb=1 open_gop=0 weightp=1 keyint=250 keyint_min=25 scenecut=40 intra_refresh=0 rc_lookahead=10 rc=crf mbtree=1 crf=18.0 qcomp=0.60 qpmin=0 qpmax=69 qpstep=4 ip_ratio=1.40 aq=1:1.00
Output #0, mp4, to '/var/www/html/project/media/video/watermarks/27daeb75-7e8a-4e4c-97bf-24156d5da375.mp4':
  Metadata:
    major_brand     : mp42
    minor_version   : 0
    compatible_brands: mp42isom
    encoder         : Lavf58.29.100
    Stream #0:0: Video: h264 (libx264), 1 reference frame (avc1 / 0x31637661), yuv420p, 1280x720 [SAR 1:1 DAR 16:9], q=-1--1, 100 fps, 12800 tbn, 100 tbc (default)
    Metadata:
      encoder         : Lavc58.54.100 libx264
    Side data:
      cpb: bitrate max/min/avg: 0/0/0 buffer size: 0 vbv_delay: -1
    Stream #0:1: Audio: aac (LC) (mp4a / 0x6134706D), 44100 Hz, stereo, fltp, delay 1024, 128 kb/s (default)
    Metadata:
      encoder         : Lavc58.54.100 aac
[Parsed_overlay_6 @ 0x55e18a5471c0] [framesync @ 0x55e1896bf3a8] Sync level 0
[Parsed_concat_7 @ 0x55e1896d41c0] EOF on in0:v0, 1 streams left in segment.
[Parsed_concat_7 @ 0x55e1896d41c0] EOF on in0:a0, 0 streams left in segment.
[Parsed_concat_7 @ 0x55e1896d41c0] Segment finished at pts=54410002
[Parsed_concat_7 @ 0x55e1896d41c0] EOF on in1:a0, 1 streams left in segment.
[Parsed_concat_7 @ 0x55e1896d41c0] EOF on in1:v0, 0 streams left in segment.
[Parsed_concat_7 @ 0x55e1896d41c0] Segment finished at pts=56428687
No more output streams to write to, finishing.
frame= 5490 fps=130 q=-1.0 Lsize=   35035kB time=00:00:56.44 bitrate=5084.5kbits/s speed=1.34x    
[AVIOContext @ 0x55e189566440] Statistics: 0 seeks, 84 writeouts
video:34048kB audio:875kB subtitle:0kB other streams:0kB global headers:0kB muxing overhead: 0.319546%
Input file #0 (/var/www/html/project/media/video/original/27daeb75-7e8a-4e4c-97bf-24156d5da375.mp4):
  Input stream #0:0 (video): 5440 packets read (9788083 bytes); 5440 frames decoded; 
  Input stream #0:1 (audio): 2343 packets read (416298 bytes); 2343 frames decoded (2399232 samples); 
  Total: 7783 packets (10204381 bytes) demuxed
Input file #1 (/var/www/html/project/static/images/templates/logo.png):
  Input stream #1:0 (video): 1 packets read (111578 bytes); 1 frames decoded; 
  Total: 1 packets (111578 bytes) demuxed
Input file #2 (/var/www/html/project/static/images/templates/Codino.mp4):
  Input stream #2:0 (audio): 89 packets read (26579 bytes); 87 frames decoded (89024 samples); 
  Input stream #2:1 (video): 50 packets read (203365 bytes); 50 frames decoded; 
  Total: 139 packets (229944 bytes) demuxed
Output file #0 (/var/www/html/project/media/video/watermarks/27daeb75-7e8a-4e4c-97bf-24156d5da375.mp4):
  Output stream #0:0 (video): 5490 frames encoded; 5490 packets muxed (34865495 bytes); 
  Output stream #0:1 (audio): 2431 frames encoded (2488505 samples); 2432 packets muxed (896476 bytes); 
  Total: 7922 packets (35761971 bytes) muxed
[AVIOContext @ 0x55e1896d2e00] Statistics: 2 seeks, 140 writeouts
[libx264 @ 0x55e1895e4d00] frame I:23    Avg QP:19.72  size:121361
[libx264 @ 0x55e1895e4d00] frame P:2083  Avg QP:23.22  size: 14697
[libx264 @ 0x55e1895e4d00] frame B:3384  Avg QP:25.74  size:   431
[libx264 @ 0x55e1895e4d00] consecutive B-frames:  0.9% 50.2%  1.8% 47.1%
[libx264 @ 0x55e1895e4d00] mb I  I16..4: 10.8% 14.9% 74.3%
[libx264 @ 0x55e1895e4d00] mb P  I16..4:  0.7%  0.6%  0.0%  P16..4: 37.0% 16.0%  8.6%  0.0%  0.0%    skip:37.1%
[libx264 @ 0x55e1895e4d00] mb B  I16..4:  0.0%  0.0%  0.0%  B16..8:  2.0%  0.5%  0.0%  direct: 1.3%  skip:96.0%  L0:23.4% L1:62.4% BI:14.3%
[libx264 @ 0x55e1895e4d00] 8x8 transform intra:33.5% inter:30.1%
[libx264 @ 0x55e1895e4d00] coded y,uvDC,uvAC intra: 53.0% 70.6% 35.5% inter: 9.3% 3.9% 0.1%
[libx264 @ 0x55e1895e4d00] i16 v,h,dc,p: 38% 45% 11%  6%
[libx264 @ 0x55e1895e4d00] i8 v,h,dc,ddl,ddr,vr,hd,vl,hu: 17% 45% 20%  2%  3%  3%  4%  2%  5%
[libx264 @ 0x55e1895e4d00] i4 v,h,dc,ddl,ddr,vr,hd,vl,hu: 14% 25%  8%  7%  8%  7% 10%  7% 13%
[libx264 @ 0x55e1895e4d00] i8c dc,h,v,p: 39% 34% 14% 12%
[libx264 @ 0x55e1895e4d00] Weighted P-Frames: Y:1.8% UV:0.0%
[libx264 @ 0x55e1895e4d00] kb/s:4945.36
[aac @ 0x55e1895d8580] Qavg: 1297.814
[AVIOContext @ 0x55e18956f3c0] Statistics: 15942945 bytes read, 141 seeks
[AVIOContext @ 0x55e189698d00] Statistics: 111578 bytes read, 0 seeks
[AVIOContext @ 0x55e18956a540] Statistics: 1530915 bytes read, 42 seeks
